<svg width="91" height="54" viewBox="0 0 91 54" fill="none" xmlns="http://www.w3.org/2000/svg">
  <g clip-path="url(#clip0_285_9128)">
    <path d="M85.0133 1.82855L91 54H79.9489L85.0133 1.82855Z" fill="#282F39" />
    <path d="M79.9488 54H1.29187L6.35631 1.82855H85.0132L79.9488 54Z" fill="#FFDB85" />
    <path d="M78.6569 54H0L5.06444 1.82855H83.7213L78.6569 54Z" fill="white" />
    <path opacity="0.57"
      d="M60.5335 31.8624C42.0505 40.1586 22.3022 39.4047 2.81025 37.6456C2.40402 37.5993 2.00446 37.5431 1.6049 37.4836L0 54H78.6569L82.3162 16.3048C76.2928 22.842 68.7012 27.9771 60.5335 31.8624Z"
      fill="#EDE4E4" />
    <path d="M18.746 19.6809L8.23425 19.5717L9.24314 8.98071L19.7549 9.08983L18.746 19.6809Z" fill="#F75F78" />
    <path d="M33.0903 19.833L22.5785 19.7205L23.5874 9.13281L34.0992 9.24193L33.0903 19.833Z" fill="#FF908F" />
    <path d="M47.4345 19.9818L36.9227 19.8726L37.9316 9.28162L48.4434 9.39073L47.4345 19.9818Z" fill="#FF908F" />
    <path d="M61.7787 20.1305L51.267 20.0214L52.2759 9.4304L62.7876 9.53952L61.7787 20.1305Z" fill="#FF908F" />
    <path d="M76.123 20.2827L65.6112 20.1702L66.6201 9.58252L77.1319 9.69164L76.123 20.2827Z" fill="#FF908F" />
    <path d="M17.4742 33.0593L6.9624 32.9502L7.96796 22.3592L18.4797 22.4683L17.4742 33.0593Z" fill="#F75F78" />
    <path d="M31.8184 33.2081L21.3066 33.099L22.3122 22.508L32.824 22.6171L31.8184 33.2081Z" fill="#FF908F" />
    <path d="M46.1627 33.3602L35.6509 33.2478L36.6564 22.6601L47.1682 22.7692L46.1627 33.3602Z" fill="#FF908F" />
    <path d="M60.5069 33.509L49.9951 33.3999L51.0007 22.8089L61.5125 22.918L60.5069 33.509Z" fill="#FF908F" />
    <path d="M74.8511 33.6578L64.3394 33.5487L65.3449 22.9577L75.8567 23.0668L74.8511 33.6578Z" fill="#FF908F" />
    <path d="M16.1989 46.4378L5.69043 46.3287L6.69599 35.7377L17.2078 35.8468L16.1989 46.4378Z" fill="#F75F78" />
    <path d="M30.5432 46.5866L20.0314 46.4775L21.0403 35.8865L31.552 35.9956L30.5432 46.5866Z" fill="#FF908F" />
    <path d="M44.8874 46.7354L34.3756 46.6263L35.3845 36.0353L45.8963 36.1477L44.8874 46.7354Z" fill="#FF908F" />
    <path d="M59.2316 46.8875L48.7198 46.7784L49.7287 36.1874L60.2405 36.2965L59.2316 46.8875Z" fill="#FF908F" />
    <path d="M73.5759 47.0363L63.0641 46.9272L64.073 36.3362L74.5848 36.4453L73.5759 47.0363Z" fill="#FF908F" />
    <path
      d="M70.3494 4.47382C70.3494 5.52532 71.2084 6.38173 72.2706 6.38173C73.3328 6.38173 74.1918 5.52863 74.1918 4.47382C74.1918 3.41902 73.3328 2.56592 72.2706 2.56592C71.2084 2.56592 70.3494 3.41902 70.3494 4.47382Z"
      fill="#FFDB85" />
    <path
      d="M71.265 4.47383C71.265 5.02603 71.7145 5.47242 72.2706 5.47242C72.8266 5.47242 73.2761 5.02603 73.2761 4.47383C73.2761 3.92163 72.8266 3.47523 72.2706 3.47523C71.7145 3.47523 71.265 3.92163 71.265 4.47383Z"
      fill="#282F39" />
    <path
      d="M72.2706 4.89376C71.9044 4.89376 71.608 4.59948 71.608 4.23575V0.991982C71.608 0.628256 71.9044 0.333969 72.2706 0.333969C72.6369 0.333969 72.9332 0.628256 72.9332 0.991982V4.23575C72.9332 4.59948 72.6369 4.89376 72.2706 4.89376Z"
      fill="#14181E" />
    <path
      d="M56.1383 4.53664C56.1383 5.58814 56.9974 6.44455 58.0595 6.44455C59.1217 6.44455 59.9807 5.59145 59.9807 4.53664C59.9807 3.48184 59.1217 2.62874 58.0595 2.62874C56.9974 2.62874 56.1383 3.48184 56.1383 4.53664Z"
      fill="#FFDB85" />
    <path
      d="M57.054 4.53665C57.054 5.08885 57.5035 5.53524 58.0595 5.53524C58.6156 5.53524 59.0651 5.08885 59.0651 4.53665C59.0651 3.98445 58.6156 3.53806 58.0595 3.53806C57.5035 3.53806 57.054 3.98445 57.054 4.53665Z"
      fill="#282F39" />
    <path
      d="M58.0596 4.95658C57.6933 4.95658 57.397 4.6623 57.397 4.29857V1.0548C57.397 0.691077 57.6933 0.39679 58.0596 0.39679C58.4258 0.39679 58.7222 0.691077 58.7222 1.0548V4.29857C58.7222 4.6623 58.4258 4.95658 58.0596 4.95658Z"
      fill="#14181E" />
    <path
      d="M41.9772 4.50028C41.9772 5.55178 42.8362 6.40819 43.8984 6.40819C44.9606 6.40819 45.8196 5.55509 45.8196 4.50028C45.8196 3.44548 44.9606 2.59238 43.8984 2.59238C42.8362 2.59238 41.9772 3.44548 41.9772 4.50028Z"
      fill="#FFDB85" />
    <path
      d="M42.8928 4.50029C42.8928 5.05249 43.3423 5.49888 43.8984 5.49888C44.4544 5.49888 44.9039 5.05249 44.9039 4.50029C44.9039 3.94808 44.4544 3.50169 43.8984 3.50169C43.3423 3.50169 42.8928 3.94808 42.8928 4.50029Z"
      fill="#282F39" />
    <path
      d="M43.895 4.91691C43.5288 4.91691 43.2324 4.62262 43.2324 4.2589V1.01513C43.2324 0.651404 43.5288 0.357117 43.895 0.357117C44.2613 0.357117 44.5576 0.651404 44.5576 1.01513V4.2589C44.5576 4.62262 44.2613 4.91691 43.895 4.91691Z"
      fill="#14181E" />
    <path
      d="M27.5031 4.42753C27.5031 5.47903 28.3621 6.33543 29.4243 6.33543C30.4864 6.33543 31.3455 5.48233 31.3455 4.42753C31.3455 3.37272 30.4864 2.51962 29.4243 2.51962C28.3621 2.51962 27.5031 3.37272 27.5031 4.42753Z"
      fill="#FFDB85" />
    <path
      d="M28.4187 4.42753C28.4187 4.97973 28.8682 5.42612 29.4243 5.42612C29.9803 5.42612 30.4298 4.97973 30.4298 4.42753C30.4298 3.87533 29.9803 3.42894 29.4243 3.42894C28.8682 3.42894 28.4187 3.87533 28.4187 4.42753Z"
      fill="#282F39" />
    <path
      d="M29.4242 0.284363H29.4209C29.055 0.284363 28.7583 0.578965 28.7583 0.942375V4.18615C28.7583 4.54956 29.055 4.84416 29.4209 4.84416H29.4242C29.7902 4.84416 30.0868 4.54956 30.0868 4.18615V0.942375C30.0868 0.578965 29.7902 0.284363 29.4242 0.284363Z"
      fill="#14181E" />
    <path
      d="M11.9302 4.14316C11.9302 5.19466 12.7892 6.05107 13.8514 6.05107C14.9136 6.05107 15.7726 5.19797 15.7726 4.14316C15.7726 3.08836 14.9136 2.23526 13.8514 2.23526C12.7892 2.23526 11.9302 3.08836 11.9302 4.14316Z"
      fill="#FFDB85" />
    <path
      d="M13.8481 5.14176C14.4034 5.14176 14.8537 4.69468 14.8537 4.14317C14.8537 3.59166 14.4034 3.14458 13.8481 3.14458C13.2927 3.14458 12.8425 3.59166 12.8425 4.14317C12.8425 4.69468 13.2927 5.14176 13.8481 5.14176Z"
      fill="#282F39" />
    <path
      d="M13.848 4.55979C13.4818 4.55979 13.1854 4.26551 13.1854 3.90178V0.658012C13.1854 0.294287 13.4818 0 13.848 0C14.2143 0 14.5106 0.294287 14.5106 0.658012V3.90178C14.5106 4.26551 14.2143 4.55979 13.848 4.55979Z"
      fill="#14181E" />
  </g>
  <defs>
    <clipPath id="clip0_285_9128">
      <rect width="91" height="54" fill="white" />
    </clipPath>
  </defs>
</svg>
