<svg width="31" height="31" viewBox="0 0 31 31" fill="none" xmlns="http://www.w3.org/2000/svg">
  <path
    d="M15.25 30.5C23.6723 30.5 30.5 23.6723 30.5 15.25C30.5 6.82766 23.6723 0 15.25 0C6.82766 0 0 6.82766 0 15.25C0 23.6723 6.82766 30.5 15.25 30.5Z"
    fill="#282F39" />
  <path
    d="M15.25 27.5728C22.0557 27.5728 27.5728 22.0557 27.5728 15.25C27.5728 8.44434 22.0557 2.92725 15.25 2.92725C8.44434 2.92725 2.92725 8.44434 2.92725 15.25C2.92725 22.0557 8.44434 27.5728 15.25 27.5728Z"
    fill="#C6C2C4" />
  <path
    d="M17.9512 27.2753C24.1825 25.7839 28.025 19.5234 26.5336 13.292C25.0422 7.06068 18.7816 3.21821 12.5503 4.70962C6.31896 6.20104 2.47648 12.4616 3.9679 18.6929C5.45931 24.9243 11.7198 28.7667 17.9512 27.2753Z"
    fill="white" />
  <path
    d="M15.25 16.6772C16.0383 16.6772 16.6772 16.0382 16.6772 15.25C16.6772 14.4618 16.0383 13.8228 15.25 13.8228C14.4618 13.8228 13.8229 14.4618 13.8229 15.25C13.8229 16.0382 14.4618 16.6772 15.25 16.6772Z"
    fill="#282F39" />
  <path d="M15.7449 5.26364H14.7551V15.5531H15.7449V5.26364Z" fill="#282F39" />
  <path d="M19.3734 12.8081L18.7556 12.0347L14.766 15.2219L15.3838 15.9952L19.3734 12.8081Z" fill="#282F39" />
  <path
    d="M14.6285 3.88637C14.6285 4.23549 14.9124 4.52322 15.2654 4.52322C15.6184 4.52322 15.9023 4.23932 15.9023 3.88637C15.9023 3.53341 15.6184 3.24951 15.2654 3.24951C14.9124 3.24951 14.6285 3.53341 14.6285 3.88637Z"
    fill="#282F39" />
  <path
    d="M14.6285 26.3835C14.6285 26.7326 14.9124 27.0203 15.2654 27.0203C15.6184 27.0203 15.9023 26.7364 15.9023 26.3835C15.9023 26.0305 15.6184 25.7466 15.2654 25.7466C14.9124 25.7466 14.6285 26.0305 14.6285 26.3835Z"
    fill="#282F39" />
  <path
    d="M22.7694 6.73302C22.5201 6.98239 22.5201 7.38522 22.7694 7.63075C23.0188 7.88013 23.4216 7.88013 23.6672 7.63075C23.9165 7.38138 23.9165 6.97855 23.6672 6.73302C23.4178 6.48748 23.015 6.48365 22.7694 6.73302Z"
    fill="#282F39" />
  <path
    d="M6.85964 22.6429C6.61026 22.8923 6.61026 23.2951 6.85964 23.5406C7.10901 23.79 7.51184 23.79 7.75737 23.5406C8.00674 23.2913 8.00674 22.8884 7.75737 22.6429C7.508 22.3974 7.10517 22.3935 6.85964 22.6429Z"
    fill="#282F39" />
  <path
    d="M26.5139 14.5019C26.1648 14.5019 25.8771 14.7858 25.8771 15.1387C25.8771 15.4917 26.161 15.7756 26.5139 15.7756C26.8669 15.7756 27.1508 15.4917 27.1508 15.1387C27.1508 14.7858 26.8669 14.5019 26.5139 14.5019Z"
    fill="#282F39" />
  <path
    d="M4.01686 14.5019C3.66774 14.5019 3.38 14.7858 3.38 15.1387C3.38 15.4917 3.6639 15.7756 4.01686 15.7756C4.36982 15.7756 4.65372 15.4917 4.65372 15.1387C4.65372 14.7858 4.36982 14.5019 4.01686 14.5019Z"
    fill="#282F39" />
  <path
    d="M23.6672 22.6429C23.4178 22.3935 23.015 22.3935 22.7695 22.6429C22.5239 22.8923 22.5201 23.2951 22.7695 23.5406C23.0188 23.79 23.4217 23.79 23.6672 23.5406C23.9166 23.2913 23.9166 22.8884 23.6672 22.6429Z"
    fill="#282F39" />
  <path
    d="M7.76118 6.73302C7.51181 6.48365 7.10898 6.48365 6.86345 6.73302C6.61791 6.98239 6.61408 7.38522 6.86345 7.63076C7.11282 7.88013 7.51565 7.88013 7.76118 7.63076C8.01056 7.38138 8.01056 6.97855 7.76118 6.73302Z"
    fill="#282F39" />
</svg>
