<svg width="140" height="140" viewBox="0 0 140 140" fill="none" xmlns="http://www.w3.org/2000/svg">
  <path
    d="M129.582 75.7559C129.582 108.842 102.758 135.666 69.6719 135.666C36.5859 135.666 9.76172 108.842 9.76172 75.7559C9.76172 57.3535 18.0605 40.8789 31.1309 29.8867C41.5488 21.123 54.9883 15.8457 69.6719 15.8457C102.758 15.8457 129.582 42.6699 129.582 75.7559Z"
    fill="#9DC6AF" />
  <path
    d="M69.6719 137.43C61.3457 137.43 53.2656 135.803 45.6641 132.576C38.3223 129.473 31.7188 125.016 26.0586 119.355C20.3984 113.695 15.9414 107.092 12.8379 99.75C9.625 92.1484 7.98438 84.082 7.98438 75.7559C7.98438 57.5039 16.0098 40.291 29.9824 28.5332C35.4238 23.9531 41.5488 20.3848 48.1797 17.9238C55.043 15.3672 62.2754 14.082 69.6719 14.082C77.998 14.082 86.0781 15.709 93.6797 18.9355C101.021 22.0391 107.625 26.4961 113.285 32.1562C118.945 37.8164 123.402 44.4199 126.506 51.7617C129.719 59.3633 131.359 67.4434 131.359 75.7695C131.359 84.0957 129.732 92.1758 126.506 99.7773C123.402 107.119 118.945 113.723 113.285 119.383C107.625 125.043 101.021 129.5 93.6797 132.604C86.0781 135.803 77.998 137.43 69.6719 137.43ZM69.6719 17.623C62.6992 17.623 55.8906 18.8398 49.4238 21.2461C43.1758 23.5703 37.4063 26.9336 32.2793 31.2402C19.0996 42.3281 11.5391 58.543 11.5391 75.7559C11.5391 83.6035 13.0703 91.2188 16.1055 98.3828C19.0312 105.301 23.2285 111.521 28.5605 116.854C33.8926 122.186 40.1133 126.383 47.0312 129.309C54.1953 132.344 61.8105 133.875 69.6582 133.875C77.5059 133.875 85.1211 132.344 92.2852 129.309C99.2031 126.383 105.424 122.186 110.756 116.854C116.088 111.521 120.285 105.301 123.211 98.3828C126.246 91.2188 127.777 83.6035 127.777 75.7559C127.777 67.9082 126.246 60.293 123.211 53.1289C120.285 46.2109 116.088 39.9902 110.756 34.6582C105.424 29.3262 99.2031 25.1289 92.2852 22.2031C85.1348 19.1543 77.5195 17.623 69.6719 17.623Z"
    fill="#191919" />
  <path
    d="M21.6289 39.6484H117.715V43.2031H21.6289V39.6484ZM12.4551 55.5898H126.889V59.1445H12.4551V55.5898ZM10.541 71.5176H128.803V75.0723H10.541V71.5176ZM10.541 87.4453H128.803V91H10.541V87.4453ZM18.1563 103.387H121.188V106.941H18.1563V103.387Z"
    fill="#66A37F" />
  <path
    d="M73.2129 49.5605C69.1387 52.418 45.623 49.1914 30.9121 42.7656C30.8984 43.3262 30.8574 43.873 30.8574 44.4336V82.5781C30.8574 112.191 47.2363 136.418 67.2656 136.418C87.2949 136.418 103.674 112.191 103.674 82.5781V48.0703L75.8516 32.1016L73.2129 49.5605Z"
    fill="#D39E33" />
  <path
    d="M67.2519 138.182C46.1973 138.182 29.0664 113.23 29.0664 82.5645V44.4199C29.0664 44.0508 29.0801 43.709 29.0937 43.3809C29.1074 43.1484 29.1211 42.9297 29.1211 42.7246L29.1758 40.0723L31.6094 41.1387C38.1855 44.0098 47.4277 46.5391 56.3008 47.8926C64.8047 49.1914 69.7676 48.9453 71.5859 48.3711L74.4844 29.2715L105.437 47.0449V82.5781C105.437 113.23 88.3066 138.182 67.2519 138.182ZM32.6211 45.3906V82.5781C32.6211 89.6465 33.5645 96.5098 35.4238 102.99C37.2148 109.211 39.7578 114.803 43.0117 119.602C46.2246 124.346 49.9434 128.064 54.0586 130.662C58.2559 133.301 62.6992 134.641 67.2519 134.641C71.8047 134.641 76.248 133.301 80.4453 130.662C84.5605 128.078 88.2793 124.359 91.4922 119.602C94.7324 114.803 97.2891 109.211 99.0801 102.99C100.939 96.5098 101.883 89.6465 101.883 82.5781V49.0957L77.2187 34.9316L74.8398 50.5723L74.2109 51.0098C72.8984 51.9258 70.5195 52.377 66.9512 52.377H66.9375C63.8477 52.377 59.9922 52.0352 55.7676 51.3926C47.6465 50.1621 39.1973 47.9609 32.6211 45.3906Z"
    fill="#0C0C0C" />
  <path
    d="M76.4258 109.457L70.6699 111.016H64.9414L59.7734 109.443V106.299H59.4727L39.7441 130.197C47.7695 134.148 57.0527 136.404 66.9512 136.404C77.5059 136.404 87.3496 133.848 95.7305 129.404L76.4258 106.312V109.457Z"
    fill="#FAFCFB" />
  <path
    d="M66.9512 138.182C57.1485 138.182 47.4688 135.967 38.9512 131.783C38.459 131.537 38.1172 131.1 37.9942 130.566C37.8848 130.033 38.0215 129.486 38.3633 129.063L58.1055 105.178C58.4473 104.768 58.9395 104.535 59.4727 104.535H59.7735C60.7579 104.535 61.5508 105.328 61.5508 106.312V108.131L65.2012 109.238H70.4239L74.6485 108.09V106.312C74.6485 105.561 75.1133 104.891 75.8243 104.645C76.5215 104.385 77.3145 104.604 77.793 105.178L97.0977 128.27C97.4395 128.68 97.5762 129.227 97.4805 129.746C97.3712 130.266 97.043 130.73 96.5645 130.977C87.6641 135.693 77.4239 138.182 66.9512 138.182ZM42.5743 129.555C50.0938 132.877 58.461 134.627 66.9512 134.627C76.084 134.627 85.0118 132.631 92.9278 128.83L77.7383 110.646C77.5196 110.893 77.2325 111.07 76.8907 111.166L71.1348 112.738C70.9844 112.779 70.8204 112.807 70.67 112.807H64.9415C64.7637 112.807 64.586 112.779 64.4219 112.725L59.254 111.152C58.8711 111.029 58.543 110.797 58.3243 110.482L42.5743 129.555Z"
    fill="#141414" />
  <path
    d="M69.6719 137.43C61.3457 137.43 53.2656 135.803 45.6641 132.576C38.3223 129.473 31.7188 125.016 26.0586 119.355C20.3984 113.695 15.9414 107.092 12.8379 99.75C9.625 92.1484 7.98438 84.082 7.98438 75.7559C7.98438 57.5039 16.0098 40.291 29.9824 28.5332C35.4238 23.9531 41.5488 20.3848 48.1797 17.9238C55.043 15.3672 62.2754 14.082 69.6719 14.082C77.998 14.082 86.0781 15.709 93.6797 18.9355C101.021 22.0391 107.625 26.4961 113.285 32.1562C118.945 37.8164 123.402 44.4199 126.506 51.7617C129.719 59.3633 131.359 67.4434 131.359 75.7695C131.359 84.0957 129.732 92.1758 126.506 99.7773C123.402 107.119 118.945 113.723 113.285 119.383C107.625 125.043 101.021 129.5 93.6797 132.604C86.0781 135.803 77.998 137.43 69.6719 137.43ZM69.6719 17.623C62.6992 17.623 55.8906 18.8398 49.4238 21.2461C43.1758 23.5703 37.4063 26.9336 32.2793 31.2402C19.0996 42.3281 11.5391 58.543 11.5391 75.7559C11.5391 83.6035 13.0703 91.2188 16.1055 98.3828C19.0312 105.301 23.2285 111.521 28.5605 116.854C33.8926 122.186 40.1133 126.383 47.0312 129.309C54.1953 132.344 61.8105 133.875 69.6582 133.875C77.5059 133.875 85.1211 132.344 92.2852 129.309C99.2031 126.383 105.424 122.186 110.756 116.854C116.088 111.521 120.285 105.301 123.211 98.3828C126.246 91.2188 127.777 83.6035 127.777 75.7559C127.777 67.9082 126.246 60.293 123.211 53.1289C120.285 46.2109 116.088 39.9902 110.756 34.6582C105.424 29.3262 99.2031 25.1289 92.2852 22.2031C85.1348 19.1543 77.5195 17.623 69.6719 17.623Z"
    fill="#191919" />
  <path d="M76.9043 109.361L70.6426 111.344H64.3945L58.7754 109.361V89.0039H76.9043V109.361Z" fill="#FAFCFB" />
  <path
    d="M70.6426 113.121H64.3945C64.1895 113.121 63.9981 113.08 63.8066 113.025L58.1738 111.043C57.4629 110.797 56.9844 110.127 56.9844 109.361V89.0039C56.9844 88.0195 57.7773 87.2266 58.7617 87.2266H76.9043C77.8887 87.2266 78.6816 88.0195 78.6816 89.0039V109.361C78.6816 110.141 78.1758 110.824 77.4375 111.057L71.1621 113.039C70.998 113.094 70.8203 113.121 70.6426 113.121ZM64.709 109.566H70.3691L75.1406 108.063V90.7812H60.5527V108.104L64.709 109.566Z"
    fill="#141414" />
  <path
    d="M99.791 55.7129C99.791 57.6057 100.408 59.4209 101.505 60.7593C102.602 62.0977 104.091 62.8496 105.643 62.8496C107.195 62.8496 108.683 62.0977 109.78 60.7593C110.878 59.4209 111.494 57.6057 111.494 55.7129C111.494 53.8201 110.878 52.0049 109.78 50.6665C108.683 49.3281 107.195 48.5762 105.643 48.5762C104.091 48.5762 102.602 49.3281 101.505 50.6665C100.408 52.0049 99.791 53.8201 99.791 55.7129Z"
    fill="#FAFCFB" />
  <path
    d="M105.643 64.627C101.432 64.627 98.0137 60.6211 98.0137 55.7129C98.0137 50.791 101.432 46.7988 105.643 46.7988C109.854 46.7988 113.271 50.8047 113.271 55.7129C113.271 60.6211 109.854 64.627 105.643 64.627ZM105.643 50.3398C103.4 50.3398 101.568 52.7461 101.568 55.6992C101.568 58.6523 103.4 61.0586 105.643 61.0586C107.885 61.0586 109.717 58.6523 109.717 55.6992C109.717 52.7461 107.885 50.3398 105.643 50.3398Z"
    fill="#141414" />
  <path
    d="M97.8086 66.623C97.8086 67.7507 98.4625 68.8322 99.6266 69.6296C100.791 70.427 102.369 70.875 104.016 70.875C105.662 70.875 107.241 70.427 108.405 69.6296C109.569 68.8322 110.223 67.7507 110.223 66.623C110.223 65.4954 109.569 64.4139 108.405 63.6165C107.241 62.8191 105.662 62.3711 104.016 62.3711C102.369 62.3711 100.791 62.8191 99.6266 63.6165C98.4625 64.4139 97.8086 65.4954 97.8086 66.623Z"
    fill="#EEA7F9" />
  <path
    d="M104.016 72.6523C99.5449 72.6523 96.0312 70 96.0312 66.623C96.0312 63.2461 99.5312 60.5938 104.016 60.5938C108.5 60.5938 112 63.2461 112 66.623C111.986 70 108.486 72.6523 104.016 72.6523ZM104.016 64.1484C101.924 64.1484 99.5859 65.2012 99.5859 66.623C99.5859 67.7852 101.473 69.0977 104.016 69.0977C106.107 69.0977 108.445 68.0449 108.445 66.623C108.432 65.4609 106.545 64.1484 104.016 64.1484Z"
    fill="#111111" />
  <path
    d="M24.6641 66.623C24.6641 67.7507 25.318 68.8322 26.4821 69.6296C27.6461 70.427 29.2249 70.875 30.8711 70.875C32.5173 70.875 34.0961 70.427 35.2601 69.6296C36.4242 68.8322 37.0781 67.7507 37.0781 66.623C37.0781 65.4954 36.4242 64.4139 35.2601 63.6165C34.0961 62.8191 32.5173 62.3711 30.8711 62.3711C29.2249 62.3711 27.6461 62.8191 26.4821 63.6165C25.318 64.4139 24.6641 65.4954 24.6641 66.623Z"
    fill="#EEA7F9" />
  <path
    d="M30.8711 72.6523C26.4004 72.6523 22.8867 70 22.8867 66.623C22.8867 63.2461 26.3867 60.5938 30.8711 60.5938C35.3555 60.5938 38.8555 63.2461 38.8555 66.623C38.8555 70 35.3418 72.6523 30.8711 72.6523ZM30.8711 64.1484C28.7793 64.1484 26.4414 65.2012 26.4414 66.623C26.4414 67.7852 28.3281 69.0977 30.8711 69.0977C32.9629 69.0977 35.3008 68.0449 35.3008 66.623C35.3008 65.4609 33.4004 64.1484 30.8711 64.1484Z"
    fill="#111111" />
  <path
    d="M23.0098 55.7129C23.0098 57.6057 23.6263 59.4209 24.7236 60.7593C25.821 62.0977 27.3094 62.8496 28.8613 62.8496C30.4133 62.8496 31.9016 62.0977 32.999 60.7593C34.0964 59.4209 34.7129 57.6057 34.7129 55.7129C34.7129 53.8201 34.0964 52.0049 32.999 50.6665C31.9016 49.3281 30.4133 48.5762 28.8613 48.5762C27.3094 48.5762 25.821 49.3281 24.7236 50.6665C23.6263 52.0049 23.0098 53.8201 23.0098 55.7129Z"
    fill="#FAFCFB" />
  <path
    d="M28.8613 64.627C24.6504 64.627 21.2324 60.6211 21.2324 55.7129C21.2324 50.791 24.6504 46.7988 28.8613 46.7988C33.0723 46.7988 36.4902 50.8047 36.4902 55.7129C36.4766 60.6211 33.0586 64.627 28.8613 64.627ZM28.8613 50.3398C26.6191 50.3398 24.7871 52.7461 24.7871 55.6992C24.7871 58.6523 26.6191 61.0586 28.8613 61.0586C31.1035 61.0586 32.9355 58.6523 32.9355 55.6992C32.9219 52.7461 31.1035 50.3398 28.8613 50.3398Z"
    fill="#141414" />
  <path
    d="M73.2129 43.9004C69.1387 45.8281 45.623 43.6543 30.9121 39.3066C30.8984 39.6895 30.8574 40.0586 30.8574 40.4277V66.2266C30.8574 86.2559 47.2363 102.635 67.2656 102.635C87.2949 102.635 103.674 86.2559 103.674 66.2266V42.9023L75.8789 32.1016L73.2129 43.9004Z"
    fill="#FAFCFB" />
  <path
    d="M67.2519 104.412C57.0937 104.412 47.5098 100.434 40.2773 93.2012C33.0449 85.9688 29.0664 76.3848 29.0664 66.2266V40.4277C29.0664 40.1543 29.0801 39.8809 29.1074 39.6621C29.1211 39.5117 29.1211 39.375 29.1348 39.252L29.2031 36.9551L31.418 37.6113C38.0352 39.5664 47.3047 41.2754 56.2324 42.2051C64.2715 43.0391 69.5762 42.9707 71.709 42.5332L74.5801 29.709L105.437 41.6992V66.2539C105.437 76.4121 101.459 85.9961 94.2266 93.2285C86.9941 100.461 77.4101 104.412 67.2519 104.412ZM32.6211 41.6309V66.2266C32.6211 75.4414 36.2305 84.1231 42.793 90.6856C49.3555 97.2481 58.0371 100.857 67.2519 100.857C76.4668 100.857 85.1484 97.2481 91.7109 90.6856C98.2734 84.1231 101.883 75.4414 101.883 66.2266V44.1191L77.1367 34.5078L74.7578 45.1445L73.9785 45.5137C70.7246 47.0586 60.2246 46.1836 55.877 45.7324C47.6875 44.8848 39.1973 43.3809 32.6211 41.6309Z"
    fill="#141414" />
  <path
    d="M67.2246 4.01953C47.5781 4.01953 31.4863 19.7969 30.8711 39.3066C45.582 43.6543 69.0977 45.8281 73.1719 43.9004L75.8242 32.1016L103.619 42.9023V40.4414C103.633 20.4121 87.2402 4.01953 67.2246 4.01953Z"
    fill="#D39E33" />
  <path
    d="M66.8828 46.3887C62.8633 46.3887 58.3242 45.9922 55.8223 45.7324C46.6895 44.7891 37.1738 43.0254 30.3652 41.0156L29.0527 40.6328L29.0938 39.2656C29.3945 29.3535 33.5098 20.0566 40.6602 13.0977C47.8379 6.11133 57.2715 2.26953 67.2109 2.26953C77.3691 2.26953 86.9531 6.24805 94.1856 13.4805C101.418 20.7129 105.396 30.2969 105.396 40.4551V45.5137L77.0957 34.5215L74.7168 45.1582L73.9375 45.5273C72.5566 46.1699 69.8633 46.3887 66.8828 46.3887ZM32.7168 37.9805C39.2109 39.7852 47.8516 41.3301 56.1914 42.1914C64.2305 43.0254 69.5352 42.957 71.668 42.5195L74.5391 29.6953L101.855 40.3047C101.828 31.1445 98.2051 22.5039 91.6836 15.9824C85.1211 9.41992 76.4395 5.81055 67.2246 5.81055C58.2012 5.81055 49.6563 9.29688 43.1484 15.627C36.9824 21.6152 33.3184 29.5176 32.7168 37.9805Z"
    fill="#0C0C0C" />
  <path
    d="M47.2637 59.1855C47.2637 60.2335 47.68 61.2385 48.4209 61.9794C49.1619 62.7204 50.1669 63.1367 51.2148 63.1367C52.2628 63.1367 53.2678 62.7204 54.0087 61.9794C54.7497 61.2385 55.166 60.2335 55.166 59.1855C55.166 58.1376 54.7497 57.1326 54.0087 56.3916C53.2678 55.6507 52.2628 55.2344 51.2148 55.2344C50.1669 55.2344 49.1619 55.6507 48.4209 56.3916C47.68 57.1326 47.2637 58.1376 47.2637 59.1855Z"
    fill="#0F0F0F" />
  <path
    d="M79.3242 59.1855C79.3242 60.2335 79.7405 61.2385 80.4815 61.9794C81.2225 62.7204 82.2275 63.1367 83.2754 63.1367C84.3233 63.1367 85.3283 62.7204 86.0693 61.9794C86.8103 61.2385 87.2266 60.2335 87.2266 59.1855C87.2266 58.1376 86.8103 57.1326 86.0693 56.3916C85.3283 55.6507 84.3233 55.2344 83.2754 55.2344C82.2275 55.2344 81.2225 55.6507 80.4815 56.3916C79.7405 57.1326 79.3242 58.1376 79.3242 59.1855Z"
    fill="#0F0F0F" />
  <path d="M76.4394 69.5215C76.4394 74.5801 72.2969 78.709 67.252 78.709C62.1934 78.709 58.0645 74.5664 58.0645 69.5215"
    fill="#FAFCFB" />
  <path
    d="M67.252 80.4863C61.209 80.4863 56.2871 75.5645 56.2871 69.5215C56.2871 68.5371 57.0801 67.7441 58.0645 67.7441C59.0488 67.7441 59.8418 68.5371 59.8418 69.5215C59.8418 73.6094 63.1641 76.9316 67.252 76.9316C71.3398 76.9316 74.6621 73.6094 74.6621 69.5215C74.6621 68.5371 75.4551 67.7441 76.4394 67.7441C77.4238 67.7441 78.2168 68.5371 78.2168 69.5215C78.2168 75.5645 73.2949 80.4863 67.252 80.4863Z"
    fill="#141414" />
</svg>
