<svg width="100" height="130" viewBox="0 0 100 130" fill="none" xmlns="http://www.w3.org/2000/svg">
<g clip-path="url(#clip0_266_3941)">
<rect width="100" height="130" fill="white"/>
<path d="M20.766 65.9994L10.7543 114.041C10.7543 114.041 -0.247585 114.541 -3.0892e-06 116.055C0.247579 117.57 13.9961 117.57 13.9961 117.57C13.9961 117.57 13.9961 121.607 16.2476 121.607C18.499 121.607 16.9981 116.563 16.9981 116.563L34.7466 67.1159L20.7582 65.9994H20.766Z" fill="#F0C8A5"/>
<path d="M79.2341 65.9994L89.2457 114.041C89.2457 114.041 100.248 114.548 99.9923 116.055C99.7447 117.57 85.9961 117.57 85.9961 117.57C85.9961 117.57 85.9961 121.607 83.7447 121.607C81.4932 121.607 82.9942 116.563 82.9942 116.563L65.2457 67.1159L79.2341 65.9994Z" fill="#F0C8A5"/>
<path d="M65.6789 15.0691C62.6228 -2.51411 50.4604 0.124932 50.2901 0.163971C50.1199 0.124932 37.7253 -2.5063 34.6693 15.0769C31.5899 32.7772 7.58995 40.2336 19.1257 56.8487C30.6693 73.4637 49.1296 70.3562 49.1296 70.3562H51.2108C51.2108 70.3562 69.6789 73.4637 81.2147 56.8487C92.7582 40.2336 68.7505 32.7772 65.6712 15.0769L65.6789 15.0691Z" fill="#4E58A0"/>
<path d="M67.4971 39.4138C62.205 32.0745 57.5783 24.7273 54.2669 16.0529C52.2863 10.0486 43.6828 8.04204 41.0368 14.0541C38.3907 19.3946 45.0058 26.0703 41.0368 32.7459C33.764 43.427 23.8375 51.4378 31.7756 64.7814C32.6112 66.1868 33.5706 67.6 34.7466 68.8024C42.5222 71.4649 49.1296 70.3561 49.1296 70.3561H51.2108C51.2108 70.3561 60.6344 71.9333 70.2282 66.7802C74.5068 58.785 73.5397 47.2528 67.4971 39.4138Z" fill="#2B3A82"/>
<path d="M49.1373 70.3562H51.2186C51.2186 70.3562 69.6867 73.4637 81.2224 56.8486" fill="#4E58A0"/>
<path d="M42.0967 19.8943C43.5977 22.2288 43.853 26.0078 41.9574 27.2492C40.0619 28.4907 36.7427 26.7183 35.2418 24.3838C33.7408 22.0492 34.058 19.1526 35.9536 17.9189C37.8491 16.6775 40.5957 17.5598 42.0967 19.8943Z" fill="#F0C8A5"/>
<path d="M64.766 47.1748C53.5783 42.9195 57.3772 31.2312 57.3772 31.2312L52.1625 30.2709V30.1694L51.7602 30.1928L51.3578 30.1147V30.2162L46.0658 30.552C46.0658 30.552 48.4797 42.6072 36.882 45.5117C25.2843 48.424 22.4836 51.8517 20.7737 65.9838L49.1838 67.6625L49.9961 67.7093L78.4062 69.388C78.3443 55.1544 75.9613 51.4144 64.7737 47.1592L64.766 47.1748Z" fill="#F0C8A5"/>
<path d="M56.8433 34.0264C57.0135 32.3556 57.3772 31.2312 57.3772 31.2312L52.1625 30.2709V30.1694L51.7602 30.1928L51.3578 30.1147V30.2162L46.0658 30.552C46.0658 30.552 46.4603 32.5195 46.1663 35.0571C47.1799 37.5009 51.1335 41.0378 56.8511 34.0108L56.8433 34.0264Z" fill="#AE5C50"/>
<path d="M40.0619 8.1982C39.9691 8.43243 36.5029 24.4462 42.0348 30.7862C47.5667 37.1261 57.9497 34.1826 60.7814 28.1862C63.2263 23.0096 64.2244 13.0547 60.4178 6.6991C56.6112 0.351353 44.8743 -3.71651 40.0619 8.19039V8.1982Z" fill="#F0C8A5"/>
<path d="M47.6983 13.1874C47.7834 15.8733 47.8685 18.5592 47.9536 21.245C47.969 21.6354 47.9768 22.018 47.9923 22.4084C47.9923 22.4787 48.0387 22.5489 48.116 22.5646L49.8259 23.0096C50.0271 23.0643 50.1199 22.7441 49.911 22.6895L48.2012 22.2444L48.3249 22.4006C48.2398 19.7147 48.1547 17.0288 48.0696 14.3429C48.0542 13.9526 48.0464 13.57 48.0309 13.1796C48.0309 12.9688 47.6983 12.9688 47.706 13.1796L47.6983 13.1874Z" fill="#D9806D"/>
<path d="M36.6731 20.3393C36.588 20.3315 36.6808 20.3393 36.7118 20.3393C36.7814 20.355 36.8433 20.3706 36.913 20.3862C37.1296 20.4486 37.3075 20.5189 37.501 20.6282C38.0426 20.9405 38.3443 21.4793 38.3288 22.1195C38.3288 22.4318 38.2669 22.7988 38.0426 23.033C37.8878 23.197 37.6944 23.2595 37.47 23.2282C37.2689 23.2048 37.06 23.0799 36.9052 22.9159C36.7505 22.752 36.6112 22.4709 36.6654 22.2366C36.7195 21.979 37.0058 21.8619 37.2689 21.8619C37.5861 21.8619 37.9188 21.9946 38.1044 22.2601C38.2282 22.4318 38.5068 22.2601 38.383 22.0961C38.1586 21.776 37.8104 21.5808 37.4313 21.5417C37.1141 21.5027 36.7505 21.5808 36.5184 21.8306C36.0309 22.3616 36.5338 23.197 37.0832 23.4547C37.3462 23.5718 37.648 23.6108 37.9188 23.5093C38.2437 23.3766 38.4526 23.0877 38.5609 22.7519C38.8008 21.979 38.6074 21.0889 37.9807 20.5658C37.617 20.2613 37.1451 20.0661 36.6808 20.0036C36.5957 19.9958 36.5184 20.0895 36.5184 20.1676C36.5184 20.2691 36.5957 20.3237 36.6808 20.3315L36.6731 20.3393Z" fill="#D9806D"/>
<path d="M40.8433 22.791C40.8665 23.9387 41.8491 24.8523 43.0329 24.8288C44.2166 24.8054 45.1605 23.8529 45.1373 22.7051C45.1141 21.5574 44.1315 20.6438 42.9478 20.6673C41.764 20.6907 40.8201 21.6432 40.8433 22.791Z" fill="#D9806D"/>
<path d="M54.6847 22.791C54.7079 23.9387 55.6905 24.8523 56.8743 24.8288C58.058 24.8054 59.0019 23.8529 58.9787 22.7051C58.9555 21.5574 57.9729 20.6438 56.7892 20.6673C55.6054 20.6907 54.6615 21.6432 54.6847 22.791Z" fill="#D9806D"/>
<path d="M49.7331 29.779C49.7253 29.9117 49.9575 30.0366 50.2437 30.0601C50.5377 30.0757 50.7776 29.982 50.7853 29.8414C50.793 29.7087 50.5609 29.5838 50.2747 29.5604C49.9807 29.5448 49.7408 29.6384 49.7331 29.779Z" fill="#D9806D"/>
<path d="M56.6963 14.9754C56.5725 15.4673 55.6441 15.1628 54.4836 14.8661C53.323 14.5694 52.3636 14.3976 52.4874 13.8979C52.6112 13.3982 53.6557 13.242 54.8163 13.5387C55.9768 13.8354 56.8201 14.4757 56.6963 14.9754Z" fill="#4E58A0"/>
<path d="M46.2901 14.0697C46.3598 14.5772 45.3849 14.6396 44.2012 14.8036C43.0174 14.9676 42.0658 15.1628 41.9961 14.6553C41.9265 14.1477 42.8317 13.609 44.0232 13.445C45.207 13.2811 46.2282 13.5622 46.2979 14.0697H46.2901Z" fill="#4E58A0"/>
<path d="M31.7215 75.4703C30.7079 73.0186 30.3598 69.8643 30.3907 66.5616L20.7582 65.9916C22.3675 52.6871 22.9865 48.4631 40.7118 43.9736C47.4352 50.251 61.7253 45.6991 61.795 45.6601C78.5764 51.7111 78.3288 55.9742 78.3907 69.4036L67.9149 68.7868L69.1141 99.9868C48.4952 106.452 29.2843 97.6288 29.2843 97.6288C29.2843 97.6288 35.4662 84.5039 31.7215 75.4703Z" fill="#E24261"/>
<path d="M53.3385 24.2667C51.9458 26.5934 48.1857 26.9604 46.5532 24.7273C46.3675 24.4697 46.1818 24.173 46.089 23.8607C46.0271 23.6576 45.7099 23.7435 45.7718 23.9465C46.0658 24.9069 46.8781 25.7345 47.7602 26.1483C49.4004 26.9135 51.3965 26.5856 52.7505 25.4144C53.0754 25.1333 53.3849 24.8054 53.6093 24.4384C53.7176 24.2588 53.4391 24.0871 53.3308 24.2745L53.3385 24.2667Z" fill="#D9806D"/>
<path d="M60.7041 19.7069C59.0948 21.9634 58.6692 25.7345 60.5029 27.0619C62.3365 28.3892 65.7408 26.773 67.3424 24.5165C68.9516 22.2601 68.7659 19.3478 66.9323 18.0204C65.0986 16.6931 62.3056 17.4505 60.7041 19.7069Z" fill="#F0C8A5"/>
<path d="M65.2534 20.9327C64.8743 20.9327 64.472 21.042 64.1315 21.2138C63.8375 21.3622 63.5822 21.573 63.3965 21.8463C63.1567 22.1976 63.0638 22.6348 63.0638 23.0565C63.0638 23.4156 63.1489 23.8138 63.4197 24.0793C63.6209 24.2823 63.9072 24.3682 64.1934 24.3448C64.7892 24.2901 65.4545 23.6967 65.323 23.0408C65.2456 22.6505 64.8665 22.4396 64.5029 22.3928C64.0851 22.3381 63.6441 22.4787 63.3578 22.7988C63.234 22.9393 63.4352 23.1502 63.5667 23.0096C63.7756 22.7754 64.0774 22.6661 64.3868 22.6817C64.619 22.6895 64.9207 22.791 65.0135 23.033C65.1064 23.2751 64.9671 23.5484 64.8046 23.7201C64.6422 23.8919 64.4333 24.0168 64.2012 24.0481C64.0077 24.0793 63.7911 24.0324 63.6364 23.8841C63.4197 23.6811 63.3578 23.361 63.3578 23.0799C63.3501 22.4162 63.6286 21.8228 64.2244 21.5027C64.5493 21.3309 64.913 21.2372 65.2534 21.2372C65.4391 21.2372 65.4468 20.9405 65.2534 20.9405V20.9327Z" fill="#D69F70"/>
<path d="M78.058 69.0757C78.058 69.0757 78.1199 70.5982 78.4217 73.0577C74.9478 70.9027 70.3675 69.6769 67.3965 70.9652L67.0329 68.045C67.0329 68.045 72.6731 64.1802 78.0658 69.0679L78.058 69.0757Z" fill="#AE5C50"/>
<path d="M28.3714 117.898C28.3714 117.898 21.2302 118.929 20.6886 124.316C20.147 129.703 16.0542 130 16.0542 130C16.0542 130 11.6364 123.613 15.5745 115.977L13.4391 116.172L12.7118 113.408C12.7118 113.408 18.4217 109.731 21.1373 111.987C23.853 114.244 27.381 112.784 27.381 112.784L28.3636 117.898H28.3714Z" fill="#282F39"/>
<path d="M25.1915 111.972C24.882 112.589 81.1683 82.5832 92.0155 91.4372C102.863 100.283 96.3714 110.699 65.5629 115.274C34.7543 119.842 27.4043 119.256 27.4043 119.256L25.1992 111.98L25.1915 111.972Z" fill="#80B3DE"/>
<path d="M94.1818 93.4829C90.1431 100.752 82.0967 104.351 74.9555 106.569C58.6924 111.004 42.7311 114.548 26.6615 116.82L27.3965 119.256C27.3965 119.256 34.7466 119.85 65.5551 115.274C94.0193 111.05 101.718 101.845 94.1741 93.4829H94.1818Z" fill="#5397C4"/>
<path d="M51.3114 108.763C68.2966 108.763 82.0658 94.8675 82.0658 77.7267C82.0658 60.586 68.2966 46.6907 51.3114 46.6907C34.3263 46.6907 20.5571 60.586 20.5571 77.7267C20.5571 94.8675 34.3263 108.763 51.3114 108.763Z" fill="#282F39"/>
<path d="M51.3114 102.805C65.0363 102.805 76.1625 91.5773 76.1625 77.7267C76.1625 63.8762 65.0363 52.6481 51.3114 52.6481C37.5866 52.6481 26.4604 63.8762 26.4604 77.7267C26.4604 91.5773 37.5866 102.805 51.3114 102.805Z" fill="#C6C2C4"/>
<path d="M56.7588 102.2C69.3254 99.1648 77.0744 86.4237 74.0667 73.7419C71.059 61.0602 58.4335 53.2402 45.8669 56.2755C33.3003 59.3107 25.5513 72.0518 28.559 84.7336C31.5667 97.4153 44.1921 105.235 56.7588 102.2Z" fill="white"/>
<path d="M51.3114 80.6312C52.901 80.6312 54.1896 79.3309 54.1896 77.7267C54.1896 76.1226 52.901 74.8222 51.3114 74.8222C49.7219 74.8222 48.4333 76.1226 48.4333 77.7267C48.4333 79.3309 49.7219 80.6312 51.3114 80.6312Z" fill="#282F39"/>
<path d="M52.3095 57.403H50.3134V78.3435H52.3095V57.403Z" fill="#282F39"/>
<path d="M59.6271 72.757L58.3812 71.1832L50.3355 77.6695L51.5813 79.2434L59.6271 72.757Z" fill="#282F39"/>
<path d="M50.058 54.6C50.058 55.3105 50.6306 55.8961 51.3424 55.8961C52.0542 55.8961 52.6267 55.3183 52.6267 54.6C52.6267 53.8817 52.0542 53.3039 51.3424 53.3039C50.6306 53.3039 50.058 53.8817 50.058 54.6Z" fill="#282F39"/>
<path d="M50.058 100.385C50.058 101.096 50.6306 101.681 51.3424 101.681C52.0542 101.681 52.6267 101.103 52.6267 100.385C52.6267 99.6667 52.0542 99.0889 51.3424 99.0889C50.6306 99.0889 50.058 99.6667 50.058 100.385Z" fill="#282F39"/>
<path d="M66.4758 60.3934C65.9729 60.9009 65.9729 61.7207 66.4758 62.2204C66.9787 62.7279 67.7911 62.7279 68.2863 62.2204C68.7892 61.7129 68.7892 60.8931 68.2863 60.3934C67.7834 59.8937 66.971 59.8859 66.4758 60.3934Z" fill="#282F39"/>
<path d="M34.3907 92.7724C33.8878 93.2799 33.8878 94.0997 34.3907 94.5994C34.8936 95.1069 35.706 95.1069 36.2012 94.5994C36.7041 94.0919 36.7041 93.2721 36.2012 92.7724C35.6983 92.2727 34.8859 92.2649 34.3907 92.7724Z" fill="#282F39"/>
<path d="M74.0271 76.2042C73.323 76.2042 72.7427 76.782 72.7427 77.5003C72.7427 78.2186 73.3153 78.7964 74.0271 78.7964C74.7389 78.7964 75.3114 78.2186 75.3114 77.5003C75.3114 76.782 74.7389 76.2042 74.0271 76.2042Z" fill="#282F39"/>
<path d="M28.6577 76.2042C27.9536 76.2042 27.3733 76.782 27.3733 77.5003C27.3733 78.2186 27.9459 78.7964 28.6577 78.7964C29.3695 78.7964 29.942 78.2186 29.942 77.5003C29.942 76.782 29.3695 76.2042 28.6577 76.2042Z" fill="#282F39"/>
<path d="M68.2863 92.7724C67.7834 92.2649 66.971 92.2649 66.4758 92.7724C65.9807 93.2799 65.9729 94.0997 66.4758 94.5994C66.9787 95.1069 67.7911 95.1069 68.2863 94.5994C68.7892 94.0919 68.7892 93.2721 68.2863 92.7724Z" fill="#282F39"/>
<path d="M36.2089 60.3934C35.706 59.8859 34.8936 59.8859 34.3985 60.3934C33.9033 60.9009 33.8956 61.7207 34.3985 62.2204C34.9014 62.7279 35.7137 62.7279 36.2089 62.2204C36.7118 61.7129 36.7118 60.8931 36.2089 60.3934Z" fill="#282F39"/>
<path d="M43.8994 18.3405C43.9071 18.9183 44.2785 19.379 44.7273 19.3712C45.176 19.3712 45.5319 18.8949 45.5164 18.3171C45.5087 17.7393 45.1373 17.2787 44.6886 17.2865C44.2398 17.2865 43.8839 17.7628 43.8994 18.3405Z" fill="#0C143B"/>
<path d="M53.2224 18.3405C53.2302 18.9183 53.6016 19.379 54.0503 19.3712C54.499 19.3712 54.8549 18.8949 54.8395 18.3171C54.8317 17.7393 54.4603 17.2787 54.0116 17.2865C53.5629 17.2943 53.207 17.7628 53.2224 18.3405Z" fill="#0C143B"/>
<path d="M61.0522 5.63723C61.0522 5.63723 64.0077 14.7177 63.2573 19.7303L62.4139 19.9177C62.4139 19.9177 61.5242 8.28408 57.6325 5.11411L59.8375 11.0715C59.8375 11.0715 50.5532 12.3051 48.1625 3.26366C48.1625 3.26366 49.7563 8.79939 48.8665 9.03362C47.9768 9.26786 45.8182 3.88047 45.8182 3.88047C45.8182 3.88047 44.5957 13.4372 37.8027 15.8498C37.8027 15.8498 36.3791 -0.538746 50.2901 0.156149C50.2901 0.156149 57.7253 -0.327936 61.0522 5.62942V5.63723Z" fill="#4E58A0"/>
<path d="M76.3636 115.423C76.3636 115.423 83.5513 116.032 84.4023 121.38C85.2534 126.729 89.354 126.775 89.354 126.775C89.354 126.775 93.4004 120.139 89.0213 112.745L91.1644 112.815L91.7292 110.012C91.7292 110.012 85.8182 106.678 83.234 109.091C80.6499 111.503 77.0445 110.262 77.0445 110.262L76.3559 115.423H76.3636Z" fill="#282F39"/>
<path d="M79.1954 109.317C79.5358 109.911 21.617 83.2859 11.2959 92.7646C0.974864 102.243 8.06191 112.253 39.087 115.001C70.1045 117.742 77.4159 116.719 77.4159 116.719L79.1954 109.325V109.317Z" fill="#80B3DE"/>
<path d="M78.4372 112.471L79.1954 109.325C79.5358 109.918 21.617 83.2937 11.296 92.7646C10.2283 93.7483 9.36171 94.7321 8.67313 95.7159C10.1122 97.0354 11.9226 97.9411 13.4468 98.558C34.3366 106.225 56.2399 110.449 78.4372 112.471Z" fill="#9ECEEF"/>
<path d="M62.3133 26.3201C62.3133 26.7808 62.6847 27.1634 63.1489 27.1634C63.6131 27.1634 63.9845 26.7886 63.9845 26.3201C63.9845 25.8517 63.6131 25.4769 63.1489 25.4769C62.6847 25.4769 62.3133 25.8517 62.3133 26.3201Z" fill="white"/>
<path d="M38.0271 26.3201C38.0271 26.7808 38.3985 27.1634 38.8627 27.1634C39.3269 27.1634 39.6983 26.7886 39.6983 26.3201C39.6983 25.8517 39.3269 25.4769 38.8627 25.4769C38.3985 25.4769 38.0271 25.8517 38.0271 26.3201Z" fill="white"/>
</g>
<defs>
<clipPath id="clip0_266_3941">
<rect width="100" height="130" fill="white"/>
</clipPath>
</defs>
</svg>
